<?xml version="1.0" standalone="no"?>
<!DOCTYPE svg PUBLIC "-//W3C//DTD SVG 20010904//EN"
 "http://www.w3.org/TR/2001/REC-SVG-20010904/DTD/svg10.dtd">
<svg version="1.0" xmlns="http://www.w3.org/2000/svg"
 width="700.000000pt" height="700.000000pt" viewBox="0 0 700.000000 700.000000"
 preserveAspectRatio="xMidYMid meet">
<metadata>
Created by potrace 1.14, written by Peter Selinger 2001-2017
</metadata>
<g transform="translate(0.000000,700.000000) scale(0.100000,-0.100000)"
fill="#000000" stroke="none">
<path d="M2011 6389 c-23 -14 -58 -71 -286 -467 -5 -9 -31 -53 -56 -97 -26
-44 -56 -96 -66 -115 -11 -19 -114 -197 -228 -395 -114 -198 -259 -448 -320
-555 -62 -107 -208 -359 -324 -560 l-211 -365 0 -335 0 -335 286 -495 c158
-272 298 -515 312 -540 14 -25 96 -167 183 -316 86 -150 168 -291 182 -315 38
-68 288 -500 308 -534 10 -16 30 -52 44 -78 14 -27 43 -76 63 -110 21 -34 44
-75 52 -91 21 -41 65 -83 92 -87 13 -2 676 -4 1473 -3 1119 0 1455 3 1472 12
21 12 43 46 185 292 27 47 53 92 58 100 5 8 30 51 55 95 25 44 57 100 71 125
27 46 88 152 496 860 132 228 263 456 292 505 29 50 108 187 176 305 67 118
131 227 141 242 17 24 18 51 16 370 l-2 343 -139 240 c-77 132 -159 273 -183
312 -23 40 -43 75 -43 78 0 3 -11 22 -23 43 -13 20 -77 129 -142 242 -65 113
-126 219 -136 235 -11 17 -22 37 -26 45 -4 8 -27 49 -51 90 -25 41 -55 93 -67
115 -13 22 -98 171 -190 330 -93 160 -180 311 -194 336 -181 318 -270 464
-290 477 -21 14 -183 16 -1489 16 -1320 1 -1468 -1 -1491 -15z"/>
</g>
</svg>
