<?xml version="1.0" encoding="utf-8"?>
<!-- Generator: Adobe Illustrator 23.0.3, SVG Export Plug-In . SVG Version: 6.00 Build 0)  -->
<svg version="1.1" id="Layer_1" xmlns="http://www.w3.org/2000/svg" xmlns:xlink="http://www.w3.org/1999/xlink" x="0px" y="0px"
	 viewBox="0 0 1080 1080" style="enable-background:new 0 0 1080 1080;" xml:space="preserve">
<style type="text/css">
	.st0{fill:#333333;}
	.st1{fill:url(#SVGID_1_);}
</style>
<g>
	<path class="st0" d="M999.7,492.1v96.4c0,0,0.1,3.6-1.9,6.4L775,980.9c-2.5,4.3-7.1,7-12.1,7H317.1c-5,0-9.6-2.7-12.1-7l-222.9-386
		c-1.9-3-1.9-7.2-1.9-7.2v-95.6H999.7z"/>
</g>
<g>
	
		<linearGradient id="SVGID_1_" gradientUnits="userSpaceOnUse" x1="540" y1="187.89" x2="540" y2="987.89" gradientTransform="matrix(1 0 0 -1 0 1080)">
		<stop  offset="0" style="stop-color:#595959"/>
		<stop  offset="1" style="stop-color:#A6A6A6"/>
	</linearGradient>
	<path class="st1" d="M762.9,92.1H317.1c-5,0-9.6,2.7-12.1,7l-222.9,386c-2.5,4.3-2.5,9.7,0,14l222.9,386c2.5,4.3,7.1,7,12.1,7
		h445.7c5,0,9.6-2.7,12.1-7l222.9-386c2.5-4.3,2.5-9.7,0-14L775,99.1C772.5,94.8,767.9,92.1,762.9,92.1z"/>
</g>
</svg>
